<?xml version="1.0" encoding="utf-8"?>
<!-- Generator: Adobe Illustrator 21.1.0, SVG Export Plug-In . SVG Version: 6.00 Build 0)  -->
<svg version="1.1" id="Layer_1" xmlns="http://www.w3.org/2000/svg" xmlns:xlink="http://www.w3.org/1999/xlink" x="0px" y="0px"
	 viewBox="0 0 328 355.1" style="enable-background:new 0 0 328 355.1;" xml:space="preserve">
<style type="text/css">
	.st0{stroke:#FFFFFF;stroke-width:0.25;}
	.st1{font-family:'Helvetica';}
	.st2{font-size:10.2803px;}
</style>
<polygon id="a" class="st0" points="102.3,47.1 118.3,31.1 214.3,31.1 230.3,47.1 214.3,63.1 118.3,63.1 "/>
<polygon id="b" class="st0" points="232.3,49.1 248.3,65.1 248.3,161.1 232.3,177.1 216.3,161.1 216.3,65.1 "/>
<polygon id="c" class="st0" points="232.3,177.1 248.3,193.1 248.3,289.1 232.3,305.1 216.3,289.1 216.3,193.1 "/>
<polygon id="d" class="st0" points="230.3,307.1 214.3,323.1 118.3,323.1 102.3,307.1 118.3,291.1 214.3,291.1 "/>
<polygon id="d_1_" class="st0" points="275.7,323.6 217.3,323.6 248,292.9 "/>
<polygon id="e" class="st0" points="100.3,305.1 84.3,289.1 84.3,193.1 100.3,177.1 116.3,193.1 116.3,289.1 "/>
<polygon id="f" class="st0" points="100.3,177.1 84.3,161.1 84.3,65.1 100.3,49.1 116.3,65.1 116.3,161.1 "/>
<polygon id="g" class="st0" points="102.3,177.1 118.3,161.1 214.3,161.1 230.3,177.1 214.3,193.1 118.3,193.1 "/>
<text transform="matrix(1.1673 0 0 1 254.3333 109.4302)" class="st1 st2">Byte n bit 0</text>
<text transform="matrix(1.1673 0 0 1 137.3333 155.9302)" class="st1 st2">Byte n bit 1</text>
<text transform="matrix(1.1673 0 0 1 253.3333 236.9302)" class="st1 st2">Byte n bit 2</text>
<text transform="matrix(1.1673 0 0 1 131.3333 286.4302)" class="st1 st2">Byte n bit 3</text>
<text transform="matrix(1.1673 0 0 1 228 335.0969)" class="st1 st2">Byte n bit 4</text>
<text transform="matrix(1.1673 0 0 1 10.3333 245.4302)" class="st1 st2">Byte n-1 bit 5</text>
<text transform="matrix(1.1673 0 0 1 10.3333 110.9302)" class="st1 st2">Byte n-1 bit 6</text>
<text transform="matrix(1.1673 0 0 1 131.3333 23.9302)" class="st1 st2">Byte n-1 bit 7</text>
</svg>
